<svg width="8" height="8" viewBox="0 0 8 8" fill="none" xmlns="http://www.w3.org/2000/svg">
<path d="M1.38575 8C0.929911 8 0.584992 7.88594 0.350997 7.65792C0.116999 7.42984 0 7.08781 0 6.63166V1.37286C0 0.916758 0.116999 0.574683 0.350997 0.346635C0.584992 0.115545 0.929911 0 1.38575 0H6.61423C7.07313 0 7.41803 0.115545 7.64898 0.346635C7.88299 0.577724 8 0.919799 8 1.37286V6.63166C8 7.08475 7.88299 7.42527 7.64898 7.65335C7.41803 7.88443 7.07313 8 6.61423 8H1.38575ZM1.41766 7.22917H6.58234C6.78591 7.22917 6.94394 7.17442 7.05638 7.06497C7.16882 6.95553 7.22504 6.79284 7.22504 6.57696V1.42759C7.22504 1.2117 7.16882 1.04903 7.05638 0.939565C6.94394 0.8301 6.78591 0.775368 6.58234 0.775368H1.41766C1.21101 0.775368 1.05299 0.8301 0.943588 0.939565C0.834185 1.04903 0.779484 1.2117 0.779484 1.42759V6.57696C0.779484 6.79284 0.834185 6.95553 0.943588 7.06497C1.05299 7.17442 1.21101 7.22917 1.41766 7.22917ZM3.75612 5.62372L2.31567 3.19725C2.2792 3.13036 2.26248 3.06043 2.26552 2.98745C2.2716 2.91447 2.29743 2.85366 2.34301 2.80501C2.3886 2.75332 2.44938 2.72747 2.52535 2.72747H5.48831C5.56429 2.72747 5.62508 2.7518 5.67067 2.80045C5.7162 2.84606 5.74053 2.90535 5.74359 2.97833C5.74966 3.0513 5.7314 3.12428 5.68887 3.19725L4.2621 5.62372C4.2226 5.69061 4.16941 5.73467 4.10256 5.75595C4.03874 5.77728 3.9734 5.77728 3.90654 5.75595C3.84273 5.73166 3.79258 5.68755 3.75612 5.62372Z" fill="#0500FF"/>
</svg>
